<svg width="86" height="74" viewBox="0 0 86 74" fill="none" xmlns="http://www.w3.org/2000/svg">
<path d="M60.6549 74L59.3552 67.4706C58.4887 67.1078 57.677 66.7277 56.9203 66.3301C56.1636 65.9325 55.3866 65.4421 54.5894 64.8588L48.3073 66.8176L43.9748 59.4176L48.9572 55.0647C48.8128 54.049 48.7406 53.1059 48.7406 52.2353C48.7406 51.3647 48.8128 50.4216 48.9572 49.4059L43.9748 45.0529L48.3073 37.6529L54.5894 39.6118C55.3837 39.0314 56.1607 38.5424 56.9203 38.1448C57.6799 37.7473 58.4916 37.3656 59.3552 37L60.6549 30.4706H69.3199L70.6196 37C71.4861 37.3627 72.2992 37.7618 73.0588 38.1971C73.8185 38.6324 74.594 39.1765 75.3854 39.8294L81.6675 37.6529L86 45.2706L81.0176 49.6235C81.1621 50.4941 81.2343 51.401 81.2343 52.3441C81.2343 53.2873 81.1621 54.1941 81.0176 55.0647L86 59.4176L81.6675 66.8176L75.3854 64.8588C74.5911 65.4392 73.8156 65.9296 73.0588 66.3301C72.3021 66.7306 71.489 67.1107 70.6196 67.4706L69.3199 74H60.6549ZM0 69.6471V57.4588C0 55.0647 0.61377 52.8157 1.84131 50.7118C3.06885 48.6078 4.76574 47.0118 6.93199 45.9235C10.6146 44.0373 14.7666 42.4412 19.3879 41.1353C24.0092 39.8294 29.0999 39.1765 34.66 39.1765H36.1763C36.6096 39.1765 37.0428 39.249 37.4761 39.3941C35.382 44.6176 34.5155 49.8049 34.8766 54.9559C35.2376 60.1069 36.9706 65.0039 40.0756 69.6471H0ZM64.9874 60.9412C67.3703 60.9412 69.4109 60.0895 71.1092 58.386C72.8076 56.6825 73.6553 54.6323 73.6524 52.2353C73.6495 49.8383 72.8018 47.7895 71.1092 46.0889C69.4167 44.3884 67.3761 43.5352 64.9874 43.5294C62.5988 43.5236 60.5596 44.3768 58.8699 46.0889C57.1803 47.8011 56.3311 49.8499 56.3224 52.2353C56.3138 54.6207 57.1629 56.6709 58.8699 58.386C60.5769 60.1011 62.6161 60.9528 64.9874 60.9412ZM34.66 34.8235C29.8942 34.8235 25.8144 33.1186 22.4207 29.7088C19.0269 26.299 17.33 22.2 17.33 17.4118C17.33 12.6235 19.0269 8.52451 22.4207 5.11471C25.8144 1.7049 29.8942 0 34.66 0C39.4257 0 43.5055 1.7049 46.8992 5.11471C50.293 8.52451 51.9899 12.6235 51.9899 17.4118C51.9899 22.2 50.293 26.299 46.8992 29.7088C43.5055 33.1186 39.4257 34.8235 34.66 34.8235Z" fill="#FFD700"/>
</svg>
