<svg width="33" height="33" viewBox="0 0 33 33" fill="none" xmlns="http://www.w3.org/2000/svg">
<path fill-rule="evenodd" clip-rule="evenodd" d="M17.677 21.9924C19.0444 21.2017 20.239 20.1442 21.1898 18.8827C20.8834 18.4062 20.6653 17.8783 20.5462 17.3244L20.5014 17.1169C20.373 16.5246 20.0705 15.9841 19.6328 15.5649C19.1951 15.1457 18.6421 14.8668 18.0448 14.764C13.1598 13.9153 13.1598 6.90382 18.0448 6.05273C18.6217 5.95342 19.1577 5.68971 19.5885 5.29326C20.0192 4.89681 20.3264 4.38446 20.4731 3.81773C19.3244 2.566 17.9187 1.57736 16.3523 0.919536C14.7859 0.261708 13.0959 -0.0497641 11.3979 0.00645677C9.69988 0.0626776 8.03412 0.485263 6.51467 1.24526C4.99523 2.00527 3.65802 3.08472 2.59464 4.40969C1.53126 5.73466 0.766848 7.27383 0.353762 8.92175C-0.0593231 10.5697 -0.111319 12.2874 0.201338 13.9573C0.513994 15.6272 1.18391 17.2098 2.1652 18.5967C3.1465 19.9835 4.41597 21.1419 5.88666 21.9924V24.7484C5.88666 25.3737 6.13505 25.9734 6.57719 26.4155C7.01932 26.8576 7.61898 27.106 8.24426 27.106H15.317C15.9423 27.106 16.542 26.8576 16.9841 26.4155C17.4262 25.9734 17.6746 25.3737 17.6746 24.7484L17.677 21.9924ZM5.88902 31.2318C5.88902 30.7628 6.07531 30.3131 6.40691 29.9815C6.73851 29.6499 7.18826 29.4636 7.65722 29.4636H15.9088C16.3777 29.4636 16.8275 29.6499 17.1591 29.9815C17.4907 30.3131 17.677 30.7628 17.677 31.2318C17.677 31.7008 17.4907 32.1505 17.1591 32.4821C16.8275 32.8137 16.3777 33 15.9088 33H7.65722C7.18826 33 6.73851 32.8137 6.40691 32.4821C6.07531 32.1505 5.88902 31.7008 5.88902 31.2318ZM23.0523 4.0417C23.4837 2.07075 26.2893 2.05897 26.7372 4.0252L26.7584 4.1195L26.8009 4.30339C27.0553 5.38031 27.62 6.35897 28.425 7.11827C29.2299 7.87756 30.2399 8.38415 31.3298 8.57535C33.3856 8.9337 33.3856 11.8854 31.3298 12.2438C30.2336 12.4358 29.2183 12.9469 28.4111 13.713C27.6038 14.4792 27.0404 15.4664 26.7914 16.5511L26.7372 16.7916C26.2893 18.7601 23.4814 18.7484 23.0476 16.7751L23.0028 16.5699C22.7651 15.4811 22.2085 14.4876 21.404 13.7163C20.5995 12.945 19.5836 12.4307 18.4856 12.239C16.4322 11.883 16.4322 8.93606 18.4856 8.57771C19.5797 8.38744 20.5927 7.87681 21.3964 7.11047C22.2001 6.34413 22.7583 5.35654 23.0004 4.27274L23.0358 4.1195L23.0523 4.0417Z" fill="#007BFF"/>
</svg>
