<svg width="69" height="65" viewBox="0 0 69 65" fill="none" xmlns="http://www.w3.org/2000/svg">
<path d="M17.0669 17.5666C17.6327 17.5666 18.1753 17.3418 18.5754 16.9418C18.9755 16.5417 19.2002 15.9991 19.2002 15.4333V2.63333C19.2002 2.06753 18.9755 1.52491 18.5754 1.12484C18.1753 0.72476 17.6327 0.5 17.0669 0.5C16.5011 0.5 15.9585 0.72476 15.5584 1.12484C15.1584 1.52491 14.9336 2.06753 14.9336 2.63333V15.4333C14.9336 15.9991 15.1584 16.5417 15.5584 16.9418C15.9585 17.3418 16.5011 17.5666 17.0669 17.5666Z" fill="#FFD700"/>
<path d="M51.1997 17.5666C51.7655 17.5666 52.3081 17.3418 52.7082 16.9418C53.1083 16.5417 53.3331 15.9991 53.3331 15.4333V2.63333C53.3331 2.06753 53.1083 1.52491 52.7082 1.12484C52.3081 0.72476 51.7655 0.5 51.1997 0.5C50.6339 0.5 50.0913 0.72476 49.6912 1.12484C49.2912 1.52491 49.0664 2.06753 49.0664 2.63333V15.4333C49.0664 15.9991 49.2912 16.5417 49.6912 16.9418C50.0913 17.3418 50.6339 17.5666 51.1997 17.5666Z" fill="#FFD700"/>
<path d="M64.5336 9.03345H56.0003V15.4334C56.0003 16.6782 55.5059 17.8719 54.6257 18.7521C53.7455 19.6323 52.5518 20.1267 51.307 20.1267C50.0623 20.1267 48.8685 19.6323 47.9883 18.7521C47.1082 17.8719 46.6137 16.6782 46.6137 15.4334V9.03345H21.7605V15.4334C21.7605 16.6782 21.266 17.8719 20.3858 18.7521C19.5057 19.6323 18.3119 20.1267 17.0672 20.1267C15.8224 20.1267 14.6286 19.6323 13.7485 18.7521C12.8683 17.8719 12.3738 16.6782 12.3738 15.4334V9.03345H3.84053C3.33285 9.02767 2.82917 9.12376 2.35927 9.31603C1.88937 9.50831 1.4628 9.79286 1.10479 10.1529C0.746774 10.5129 0.464589 10.941 0.274923 11.412C0.085256 11.8829 -0.00804148 12.3871 0.000548374 12.8948V60.6386C-0.00792736 61.1373 0.0819222 61.6327 0.264965 62.0967C0.448008 62.5607 0.720658 62.984 1.06734 63.3426C1.41403 63.7012 1.82795 63.9879 2.28548 64.1865C2.74301 64.3851 3.23518 64.4916 3.73387 64.4999H64.5336C65.0323 64.4916 65.5245 64.3851 65.982 64.1865C66.4395 63.9879 66.8535 63.7012 67.2002 63.3426C67.5468 62.984 67.8195 62.5607 68.0025 62.0967C68.1856 61.6327 68.2754 61.1373 68.2669 60.6386V12.8948C68.2754 12.3961 68.1856 11.9006 68.0025 11.4366C67.8195 10.9727 67.5468 10.5493 67.2002 10.1908C66.8535 9.83219 66.4395 9.54542 65.982 9.34685C65.5245 9.14828 65.0323 9.04178 64.5336 9.03345ZM51.0724 31.604L30.4431 52.2333L19.2005 40.9053C18.7024 40.3575 18.4326 39.64 18.4463 38.8997C18.4601 38.1595 18.7563 37.4524 19.2743 36.9235C19.7924 36.3945 20.4931 36.0836 21.2329 36.0545C21.9727 36.0253 22.6957 36.2801 23.2538 36.7667L30.4644 43.9773L46.9337 27.508C47.204 27.2377 47.525 27.0232 47.8782 26.8769C48.2314 26.7306 48.61 26.6553 48.9924 26.6553C49.3747 26.6553 49.7533 26.7306 50.1065 26.8769C50.4597 27.0232 50.7807 27.2377 51.051 27.508C51.3214 27.7784 51.5358 28.0993 51.6821 28.4526C51.8284 28.8058 51.9037 29.1844 51.9037 29.5667C51.9037 29.949 51.8284 30.3276 51.6821 30.6808C51.5358 31.0341 51.3214 31.355 51.051 31.6254L51.0724 31.604Z" fill="#FFD700"/>
</svg>
