<svg width="39" height="33" viewBox="0 0 39 33" fill="none" xmlns="http://www.w3.org/2000/svg">
<path d="M36 0H3C2.20435 0 1.44129 0.31607 0.87868 0.87868C0.31607 1.44129 0 2.20435 0 3V30C0 30.7956 0.31607 31.5587 0.87868 32.1213C1.44129 32.6839 2.20435 33 3 33H36C36.7957 33 37.5587 32.6839 38.1213 32.1213C38.6839 31.5587 39 30.7956 39 30V3C39 2.20435 38.6839 1.44129 38.1213 0.87868C37.5587 0.31607 36.7957 0 36 0ZM12.9 19.8C13.2183 20.0387 13.4287 20.394 13.4849 20.7879C13.5412 21.1817 13.4387 21.5817 13.2 21.9C12.9613 22.2183 12.606 22.4287 12.2121 22.4849C11.8183 22.5412 11.4183 22.4387 11.1 22.2L5.1 17.7C4.91371 17.5603 4.7625 17.3791 4.65836 17.1708C4.55422 16.9625 4.5 16.7329 4.5 16.5C4.5 16.2671 4.55422 16.0375 4.65836 15.8292C4.7625 15.6209 4.91371 15.4397 5.1 15.3L11.1 10.8C11.4183 10.5613 11.8183 10.4588 12.2121 10.5151C12.606 10.5713 12.9613 10.7817 13.2 11.1C13.4387 11.4183 13.5412 11.8183 13.4849 12.2121C13.4287 12.606 13.2183 12.9613 12.9 13.2L8.49938 16.5L12.9 19.8ZM23.9419 6.4125L17.9419 27.4125C17.8907 27.6053 17.8017 27.7859 17.6799 27.9438C17.5581 28.1017 17.4061 28.2338 17.2327 28.3323C17.0593 28.4307 16.868 28.4936 16.6699 28.5173C16.4719 28.5409 16.2712 28.5249 16.0794 28.47C15.8877 28.4152 15.7089 28.3226 15.5533 28.1978C15.3978 28.073 15.2687 27.9185 15.1736 27.7432C15.0785 27.5679 15.0193 27.3754 14.9995 27.177C14.9796 26.9785 14.9996 26.7781 15.0581 26.5875L21.0581 5.5875C21.1734 5.21201 21.4315 4.89673 21.7767 4.70941C22.122 4.52209 22.5269 4.47768 22.9046 4.58572C23.2823 4.69377 23.6025 4.94564 23.7964 5.28722C23.9904 5.6288 24.0426 6.03283 23.9419 6.4125ZM33.9 17.7L27.9 22.2C27.5817 22.4387 27.1817 22.5412 26.7879 22.4849C26.394 22.4287 26.0387 22.2183 25.8 21.9C25.5613 21.5817 25.4588 21.1817 25.5151 20.7879C25.5713 20.394 25.7817 20.0387 26.1 19.8L30.5006 16.5L26.1 13.2C25.9424 13.0818 25.8097 12.9337 25.7093 12.7642C25.6089 12.5947 25.5429 12.4071 25.5151 12.2121C25.4872 12.0171 25.498 11.8185 25.5469 11.6277C25.5958 11.4369 25.6818 11.2576 25.8 11.1C25.9182 10.9424 26.0663 10.8096 26.2358 10.7093C26.4053 10.6089 26.5929 10.5429 26.7879 10.5151C26.9829 10.4872 27.1814 10.498 27.3723 10.5469C27.5631 10.5958 27.7424 10.6818 27.9 10.8L33.9 15.3C34.0863 15.4397 34.2375 15.6209 34.3416 15.8292C34.4458 16.0375 34.5 16.2671 34.5 16.5C34.5 16.7329 34.4458 16.9625 34.3416 17.1708C34.2375 17.3791 34.0863 17.5603 33.9 17.7Z" fill="#007BFF"/>
</svg>
