<svg width="59" height="73" viewBox="0 0 59 73" fill="none" xmlns="http://www.w3.org/2000/svg">
<path d="M26.1818 39.7727H32.7273V43.0455H26.1818V39.7727ZM58.9091 13.5909V33.2273C58.9091 51.2273 46.4727 68.2455 29.4545 72.5C12.4364 68.2455 0 51.2273 0 33.2273V13.5909L29.4545 0.5L58.9091 13.5909ZM45.8182 29.9545H38.6182C37.9636 27.9909 36.6545 26.3545 35.0182 25.0455L38.9455 21.1182L36.6545 18.8273L32.0727 23.4091H29.4545C28.8 23.4091 27.8182 23.4091 27.1636 23.7364L22.5818 18.8273L19.9636 21.4455L23.8909 25.3727C22.2545 26.3545 20.9455 27.9909 20.2909 29.9545H13.0909V33.2273H19.6364V36.5H13.0909V39.7727H19.6364V43.0455H13.0909V46.3182H20.2909C21.6 50.2455 25.2 52.8636 29.4545 52.8636C33.7091 52.8636 37.3091 50.2455 38.6182 46.3182H45.8182V43.0455H39.2727V39.7727H45.8182V36.5H39.2727V33.2273H45.8182V29.9545ZM26.1818 36.5H32.7273V33.2273H26.1818V36.5Z" fill="#008080"/>
</svg>
