<svg width="33" height="33" viewBox="0 0 33 33" fill="none" xmlns="http://www.w3.org/2000/svg">
<path d="M0 1.96695e-07H14.85V14.85H0V1.96695e-07ZM18.15 7.425C18.15 6.44993 18.3421 5.48442 18.7152 4.58358C19.0883 3.68273 19.6353 2.86421 20.3247 2.17473C21.0142 1.48526 21.8327 0.938336 22.7336 0.565194C23.6344 0.192053 24.5999 0 25.575 0C26.5501 0 27.5156 0.192053 28.4164 0.565194C29.3173 0.938336 30.1358 1.48526 30.8253 2.17473C31.5147 2.86421 32.0617 3.68273 32.4348 4.58358C32.8079 5.48442 33 6.44993 33 7.425C33 9.39423 32.2177 11.2828 30.8253 12.6753C29.4328 14.0677 27.5442 14.85 25.575 14.85C23.6058 14.85 21.7172 14.0677 20.3247 12.6753C18.9323 11.2828 18.15 9.39423 18.15 7.425ZM0 18.15H14.85V33H0V18.15ZM18.15 18.15H33V33H18.15V18.15Z" fill="#007BFF"/>
</svg>
