<svg width="63" height="72" viewBox="0 0 63 72" fill="none" xmlns="http://www.w3.org/2000/svg">
<path d="M31.5 36C36.2739 36 40.8523 34.1036 44.2279 30.7279C47.6036 27.3523 49.5 22.7739 49.5 18C49.5 13.2261 47.6036 8.64773 44.2279 5.27208C40.8523 1.89642 36.2739 0 31.5 0C26.7261 0 22.1477 1.89642 18.7721 5.27208C15.3964 8.64773 13.5 13.2261 13.5 18C13.5 22.7739 15.3964 27.3523 18.7721 30.7279C22.1477 34.1036 26.7261 36 31.5 36ZM25.0734 42.75C11.2219 42.75 0 53.9719 0 67.8234C0 70.1297 1.87031 72 4.17656 72H58.8234C61.1297 72 63 70.1297 63 67.8234C63 53.9719 51.7781 42.75 37.9266 42.75H25.0734Z" fill="#008080"/>
</svg>
