<svg width="59" height="73" viewBox="0 0 59 73" fill="none" xmlns="http://www.w3.org/2000/svg">
<path d="M29.4545 0.5L0 13.5909V33.2273C0 51.3909 12.5673 68.3764 29.4545 72.5C46.3418 68.3764 58.9091 51.3909 58.9091 33.2273V13.5909L29.4545 0.5ZM29.4545 26.3218C34.6909 26.3218 38.9127 30.5436 38.9127 35.78C38.9127 41.0164 34.6909 45.2382 29.4545 45.2382C24.2182 45.2382 19.9964 40.9836 19.9964 35.78C19.9964 30.5764 24.2509 26.3218 29.4545 26.3218ZM29.4545 16.8636L33.9709 23.4091C32.5964 22.82 31.0909 22.5255 29.4545 22.5255C27 22.5255 26.3455 22.82 24.9382 23.4091L29.4545 16.8636ZM13.0909 26.3218L20.9455 25.6673C19.8327 26.6818 18.7855 27.7945 18 29.1691C17.1818 30.5436 16.6909 31.9836 16.3636 33.4891L13.0909 26.3218ZM13.0909 45.2382L16.4618 38.1364C16.7236 39.5436 17.2473 41.0164 18 42.3909C18.8182 43.7982 19.8327 44.9764 20.9455 45.9255L13.0909 45.2382ZM45.8182 26.3218L42.5455 33.4891C42.2182 31.9836 41.6945 30.5436 40.9091 29.1691C40.1236 27.7945 39.1091 26.6818 37.9636 25.6345L45.8182 26.3218ZM45.8182 45.2382L37.9636 45.8927C39.0764 44.9436 40.0909 43.7655 40.9091 42.3909C41.6945 41.0164 42.1855 39.5436 42.4473 38.1364L45.8182 45.2382ZM29.4545 54.6636L24.9055 48.1836C26.3127 48.6745 27.8182 49.0018 29.4545 49.0018C31.0909 49.0018 32.5636 48.6745 33.9382 48.1836L29.4545 54.6636Z" fill="#008080"/>
</svg>
