<svg width="73" height="73" viewBox="0 0 73 73" fill="none" xmlns="http://www.w3.org/2000/svg">
<path fill-rule="evenodd" clip-rule="evenodd" d="M63.7827 0.604243C64.8787 0.42146 66.0014 0.479562 67.0726 0.774511C68.1439 1.06946 69.1381 1.59418 69.9861 2.31219C70.8341 3.0302 71.5156 3.92427 71.9831 4.93227C72.4506 5.94026 72.693 7.03798 72.6935 8.14912V53.3725C72.6927 56.7413 71.5804 60.0157 69.5291 62.6879C67.4778 65.3601 64.6021 67.2809 61.3479 68.1522C58.0938 69.0236 54.643 68.7969 51.5309 67.5073C48.4187 66.2177 45.819 63.9372 44.1349 61.0195C42.4509 58.1019 41.7765 54.7101 42.2165 51.3702C42.6565 48.0303 44.1863 44.9288 46.5685 42.5469C48.9507 40.1649 52.0523 38.6355 55.3923 38.1959C58.7323 37.7563 62.124 38.431 65.0415 40.1154V23.4531L26.7814 29.8311V57.1985C26.7814 57.428 26.7623 57.6499 26.724 57.8642C26.9987 60.8063 26.2926 63.7566 24.7156 66.2556C23.1386 68.7545 20.7793 70.6616 18.0054 71.6798C15.2315 72.6981 12.1987 72.7702 9.37949 71.885C6.56029 70.9998 4.11305 69.207 2.41904 66.7859C0.725029 64.3648 -0.120606 61.4513 0.0138835 58.4995C0.148373 55.5477 1.25543 52.7232 3.16259 50.4662C5.06974 48.2091 7.66987 46.6463 10.5579 46.0211C13.4459 45.3959 16.4596 45.7436 19.1294 47.0098V14.5271C19.1292 12.7157 19.7716 10.963 20.9422 9.58072C22.1129 8.19847 23.736 7.27633 25.5227 6.97836L63.7827 0.604243ZM26.7814 22.0758L65.0415 15.6978V8.14912L26.7814 14.5271V22.0758Z" fill="#FFD700"/>
</svg>
