<svg width="24" height="33" viewBox="0 0 24 33" fill="none" xmlns="http://www.w3.org/2000/svg">
<path d="M8.31441 23.0567L8.31206 23.0496L7.86416 22.9034C5.73394 22.1505 3.86502 20.8012 2.47994 19.0161C1.35993 17.5739 0.590339 15.8911 0.231888 14.1005C-0.126564 12.3099 -0.0640763 10.4606 0.414422 8.69827C0.89292 6.93598 1.77434 5.30897 2.98916 3.94558C4.20398 2.58219 5.71896 1.5197 7.41462 0.841934C9.11028 0.164166 10.9402 -0.110349 12.7601 0.0400435C14.58 0.190436 16.3401 0.761623 17.9015 1.70855C19.4629 2.65547 20.7829 3.95224 21.7574 5.49655C22.7319 7.04087 23.3343 8.7905 23.517 10.6074C23.5807 11.2557 23.0456 11.7838 22.3949 11.7838C21.7443 11.7838 21.2233 11.2533 21.1455 10.6074C20.9351 8.94038 20.2831 7.35982 19.2569 6.02931C18.2307 4.69879 16.8677 3.66665 15.3088 3.03968C13.7498 2.41271 12.0517 2.21369 10.39 2.46321C8.7284 2.71272 7.16361 3.40172 5.85758 4.45889C4.55156 5.51607 3.55174 6.90302 2.96159 8.47625C2.37143 10.0495 2.21238 11.7518 2.50089 13.4071C2.78939 15.0625 3.51497 16.6106 4.60255 17.8914C5.69014 19.1723 7.10021 20.1392 8.68688 20.6922C9.0871 19.9623 9.73204 19.3969 10.5081 19.0957C11.2842 18.7945 12.1417 18.7768 12.9296 19.0457C13.7174 19.3146 14.3852 19.8528 14.8152 20.5656C15.2452 21.2784 15.41 22.1201 15.2804 22.9424C15.1509 23.7648 14.7354 24.5151 14.107 25.0611C13.4787 25.6072 12.6778 25.9141 11.8454 25.9278C11.0131 25.9414 10.2026 25.6609 9.55665 25.1357C8.91074 24.6106 8.47084 23.8743 8.31441 23.0567ZM6.44503 24.8836C4.13624 23.941 2.11771 22.4047 0.594055 20.4306C0.206777 21.0114 7.60717e-05 21.6938 0 22.3919V23.5706C0 28.2169 4.38469 33 11.7868 33C19.1889 33 23.5736 28.2169 23.5736 23.5706V22.3919C23.5736 21.4541 23.2011 20.5547 22.5379 19.8915C21.8748 19.2284 20.9754 18.8558 20.0376 18.8558H16.5015C16.996 19.5162 17.3463 20.2729 17.5298 21.0772C17.7133 21.8814 17.7259 22.7152 17.5668 23.5247C17.4077 24.3341 17.0805 25.1011 16.6063 25.7761C16.1321 26.4511 15.5215 27.019 14.8139 27.4431C14.1064 27.8672 13.3177 28.138 12.4988 28.2381C11.68 28.3381 10.8493 28.2652 10.0604 28.0239C9.27159 27.7826 8.54218 27.3785 7.91939 26.8375C7.2966 26.2966 6.79432 25.6309 6.44503 24.8836ZM18.8589 11.7838C18.8589 9.62912 17.8947 7.69844 16.3742 6.40189C15.6318 5.77306 14.7677 5.30418 13.8358 5.02456C12.9039 4.74494 11.9244 4.66061 10.9584 4.77684C9.99249 4.89307 9.06091 5.20736 8.22196 5.70005C7.38302 6.19274 6.65476 6.85324 6.08273 7.64023C5.5107 8.42722 5.1072 9.32377 4.89748 10.2738C4.68776 11.2239 4.67632 12.207 4.86388 13.1616C5.05144 14.1163 5.43396 15.022 5.98752 15.8221C6.54109 16.6222 7.25378 17.2994 8.08103 17.8115C9.12927 16.9617 10.4374 16.4974 11.7868 16.4961C13.1357 16.4961 14.4437 16.9587 15.4926 17.8068C16.5213 17.1739 17.3708 16.288 17.9601 15.2337C18.5494 14.1793 18.8588 12.9916 18.8589 11.7838Z" fill="#007BFF"/>
</svg>
