<svg width="72" height="73" viewBox="0 0 72 73" fill="none" xmlns="http://www.w3.org/2000/svg">
<path d="M42.5391 23.4078H6.53906C2.93906 23.4078 0 26.3469 0 29.9609V65.9609C0 69.5609 2.93906 72.5 6.53906 72.5H42.5391C46.1531 72.5 49.0781 69.5609 49.0781 65.9609V29.9609C49.0922 26.3469 46.1531 23.4078 42.5391 23.4078ZM52.3687 39.7766V56.1453L72 65.9609V29.9609L52.3687 39.7766ZM9.81563 20.1313C15.2438 20.1313 19.6313 15.7297 19.6313 10.3156C19.6313 4.90156 15.2438 0.5 9.81563 0.5C4.40156 0.5 0 4.90156 0 10.3156C0 15.7297 4.40156 20.1313 9.81563 20.1313ZM39.2766 0.5C33.8484 0.5 29.4609 4.90156 29.4609 10.3156C29.4609 15.7297 33.8625 20.1313 39.2766 20.1313C44.7047 20.1313 49.0922 15.7297 49.0922 10.3156C49.0922 4.90156 44.6906 0.5 39.2766 0.5Z" fill="#FFD700"/>
</svg>
