<svg width="159" height="28" viewBox="0 0 159 28" fill="none" xmlns="http://www.w3.org/2000/svg">
<path d="M130.808 2.24774C132.083 3.42326 133.206 4.45546 134.324 5.49107C138.681 9.52774 143.06 13.5388 147.386 17.613C149.578 19.6774 151.883 21.6036 153.953 23.8148C154.38 24.2703 155.084 24.2498 155.45 23.7789C155.883 23.221 155.815 22.6887 155.306 22.2127C153.385 20.4196 151.469 18.6196 149.543 16.8316C145.63 13.201 141.711 9.57551 137.795 5.94831C135.93 4.22172 134.063 2.49854 132.158 0.736123C132.44 0.533095 132.707 0.616695 132.953 0.616695C141.319 0.611576 149.683 0.623519 158.049 0.592809C158.804 0.589397 158.979 0.829959 158.963 1.58918C158.921 3.52562 158.953 3.52562 157.104 3.52562C151.377 3.52562 145.649 3.52562 139.92 3.52562C139.864 3.85149 140.11 3.92144 140.257 4.05793C146.092 9.48168 151.91 14.9276 157.776 20.3121C159.129 21.5542 159.115 23.1255 158.878 24.6746C158.657 26.1095 157.632 27.1127 156.312 27.4249C154.924 27.7542 153.53 27.6672 152.34 26.5428C148.896 23.2876 145.419 20.0715 141.954 16.8402C139.293 14.356 136.632 11.8685 133.969 9.38443C133.915 9.33324 133.838 9.31106 133.753 9.265C133.571 9.56357 133.66 9.8792 133.66 10.1727C133.654 15.6527 133.64 21.1327 133.673 26.6111C133.678 27.3754 133.48 27.5631 132.782 27.546C130.811 27.5 130.812 27.5341 130.812 25.398C130.812 18.072 130.812 10.7476 130.812 3.42155C130.808 3.11616 130.808 2.80564 130.808 2.24774Z" fill="#AD6DFC"/>
<path d="M0.017868 17.6181C0.017868 14.7792 0.0338639 11.9402 0.00507127 9.10121C-0.00132708 8.50407 0.147435 8.31981 0.707291 8.35734C1.47669 8.41023 2.25249 8.39147 3.0235 8.36076C3.43459 8.34369 3.60895 8.46995 3.56736 8.92719C3.53696 9.265 3.54336 9.60963 3.56896 9.94744C3.58335 10.1436 3.43299 10.4303 3.75771 10.5088C3.98805 10.5651 4.1672 10.4746 4.30477 10.2682C5.82918 7.98029 7.99502 7.8148 10.3064 8.28057C11.6261 8.54672 12.589 9.42878 13.3185 10.6145C13.7024 11.239 13.9983 11.2577 14.355 10.6248C15.8218 8.02465 18.5123 7.66295 21.0557 8.36929C23.3703 9.01249 24.8899 11.2083 24.9315 13.9773C24.9923 18.0924 24.9459 22.2093 24.9683 26.3262C24.9715 26.8226 24.7795 26.8687 24.4036 26.8585C23.5782 26.8363 22.7512 26.8158 21.9274 26.8636C21.4092 26.8943 21.3164 26.6879 21.3196 26.1845C21.3388 22.5795 21.334 18.9728 21.3244 15.3678C21.3228 14.8303 21.3164 14.281 21.2092 13.7606C20.9389 12.4316 20.0079 11.5751 18.7091 11.3721C17.0999 11.1195 15.6251 11.7815 14.8956 13.085C14.4158 13.9432 14.2926 14.8918 14.2926 15.8677C14.2878 19.2748 14.2718 22.6819 14.307 26.0873C14.3134 26.7407 14.1422 26.9097 13.5568 26.8653C12.8146 26.809 12.0644 26.8141 11.3206 26.8653C10.7831 26.9028 10.6663 26.7015 10.6695 26.1573C10.6919 22.5232 10.6839 18.8892 10.6807 15.2552C10.6791 12.7335 9.60741 11.3993 7.54074 11.3413C5.30771 11.2782 3.74331 12.7421 3.69372 15.1375C3.61854 18.7698 3.63614 22.4038 3.66013 26.0378C3.66493 26.722 3.48258 26.9148 2.86354 26.8653C2.14852 26.809 1.42391 26.8124 0.707291 26.8653C0.158632 26.9062 -0.00772525 26.7493 0.0002727 26.1351C0.0370633 23.2961 0.017868 20.4571 0.017868 17.6181Z" fill="white"/>
<path d="M77.6363 24.3607C77.6939 23.7568 77.4844 23.535 76.9309 23.6254C76.7486 23.6544 76.5582 23.6322 76.3727 23.6288C75.4513 23.6117 75.1794 23.337 75.1698 22.3646C75.157 21.0031 75.1666 19.6399 75.1666 18.2784H75.1554C75.1554 16.9152 75.1954 15.552 75.1474 14.1906C75.0482 11.4164 73.5414 9.22917 71.1004 8.36929C69.0226 7.63566 66.8935 7.62371 64.8204 8.3454C62.797 9.05003 61.3669 10.5036 60.5735 12.6465C60.3976 13.1225 60.404 13.3392 60.9222 13.4808C61.6389 13.677 62.3475 13.9329 63.0353 14.2264C63.576 14.4567 63.7791 14.3253 63.9743 13.7231C64.6669 11.5938 66.5784 10.6777 69.0993 11.1861C70.7949 11.529 71.6299 12.8649 71.6443 15.117C71.6475 15.7517 71.4379 15.854 70.9133 15.8421C69.3425 15.8097 67.7717 15.8233 66.1993 15.8353C65.102 15.8438 64.0254 16.0161 63.0017 16.4529C61.2789 17.1882 60.0889 18.4388 59.8201 20.4588C59.5194 22.716 60.0121 24.6849 61.8612 26.0737C64.8924 28.353 69.2097 27.6842 71.4347 24.5757C71.5771 24.3778 71.6843 24.2157 71.9338 24.2532C72.2633 24.3027 72.1434 24.6064 72.1786 24.7958C72.3705 25.8314 72.9959 26.3995 73.9013 26.7032C74.3684 26.8602 74.8435 26.8619 75.3233 26.8516C76.0639 26.8363 77.0637 27.1161 77.4796 26.7134C77.9595 26.2511 77.5596 25.1677 77.6363 24.3607ZM67.7909 24.1099C66.9207 24.2242 66.0393 24.2549 65.1851 23.9495C63.9743 23.5179 63.3008 22.5386 63.352 21.2914C63.4 20.1176 64.0734 19.343 65.3435 18.9899C66.42 18.6896 67.5157 18.9097 68.4051 18.8346C69.4512 18.8346 70.3038 18.8551 71.1532 18.8261C71.5515 18.8124 71.6283 18.9728 71.6347 19.3652C71.6763 21.7862 70.0607 23.8165 67.7909 24.1099Z" fill="white"/>
<path d="M31.9745 18.6572C33.9436 18.7066 35.9143 18.6742 37.8849 18.6742H42.7573C44.7024 18.6742 44.704 18.6742 44.5888 16.5484C44.1521 8.52796 37.058 6.2537 32.0161 8.86918C30.2421 9.79048 29.012 11.285 28.3002 13.2351C27.3101 15.9513 27.2669 18.7356 28.1163 21.4774C29.4247 25.7017 33.3565 27.9726 37.8114 27.314C40.5003 26.9165 42.4038 25.4049 43.805 23.0197C44.0546 22.5949 44.0674 22.3594 43.5875 22.1325C42.9109 21.8118 42.2534 21.4364 41.6088 21.044C41.2585 20.8325 41.0729 20.8529 40.8682 21.2573C39.7053 23.5623 37.8162 24.2549 35.492 23.9427C33.2925 23.6493 31.597 21.7998 31.3202 19.4676C31.2467 18.8431 31.3282 18.6401 31.9745 18.6572ZM31.3666 15.2228C31.6689 12.9451 33.662 11.2833 36.1542 11.2646C38.6591 11.2441 40.4619 12.7335 40.825 15.0658C40.9114 15.6169 40.801 15.7499 40.2907 15.738C38.8831 15.7056 37.4739 15.7278 36.0646 15.7278C34.6554 15.7278 33.2461 15.7192 31.8385 15.7329C31.4834 15.7363 31.3058 15.6834 31.3666 15.2228Z" fill="white"/>
<path d="M90.2315 18.6538C92.199 18.7135 94.1697 18.6742 96.1404 18.6742H100.853C102.884 18.6742 102.884 18.6742 102.807 16.5023C102.673 12.7284 100.669 9.64205 97.556 8.41535C94.2081 7.09482 90.3211 8.0093 88.0065 10.6964C86.3941 12.5697 85.8678 14.8576 85.7895 17.3418C85.6215 22.7348 88.344 26.4541 93.1348 27.2816C96.9098 27.935 100.103 26.3978 102.012 23.047C102.28 22.5795 102.264 22.3407 101.774 22.1069C101.098 21.7828 100.442 21.4091 99.7907 21.0287C99.4819 20.8478 99.3156 20.8154 99.114 21.2129C97.9975 23.4258 96.2188 24.2225 93.9202 23.9683C91.6568 23.7192 89.8332 21.8903 89.5453 19.517C89.4717 18.9182 89.5293 18.6333 90.2315 18.6538ZM89.5885 15.2313C89.9788 12.8666 91.8599 11.2953 94.3857 11.2629C96.8698 11.2322 98.6278 12.6909 99.066 15.0811C99.1748 15.6715 98.9989 15.7465 98.519 15.738C97.1082 15.7107 95.6957 15.7278 94.2849 15.7278C92.8724 15.7295 91.4616 15.7226 90.0508 15.7329C89.7069 15.7363 89.5085 15.7192 89.5885 15.2313Z" fill="white"/>
<path d="M121.224 26.8534C119.808 26.8534 118.515 26.8414 117.223 26.8619C116.845 26.8687 116.734 26.5821 116.569 26.3381C115.257 24.4136 113.95 22.4823 112.634 20.5595C112.127 19.8173 111.914 19.8293 111.402 20.5834C110.092 22.5096 108.771 24.4273 107.478 26.3671C107.234 26.7339 106.982 26.8755 106.563 26.8636C105.37 26.8329 104.175 26.8534 102.82 26.8534C103.766 25.5141 104.633 24.2822 105.503 23.0521C106.672 21.4006 107.825 19.7371 109.028 18.1146C109.385 17.6352 109.326 17.3469 108.998 16.893C107.01 14.1325 105.053 11.3465 102.958 8.38464C104.428 8.38464 105.733 8.37782 107.038 8.38976C107.318 8.39147 107.408 8.68321 107.544 8.88112C108.833 10.7561 110.116 12.6346 111.407 14.5062C111.906 15.2296 112.152 15.2262 112.655 14.4942C113.941 12.6192 115.222 10.7408 116.508 8.86577C116.662 8.64227 116.774 8.36758 117.103 8.36929C118.394 8.3744 119.686 8.37099 121.131 8.37099C119.48 10.693 117.93 12.8734 116.378 15.0539C115.929 15.6868 115.505 16.3437 115.02 16.9425C114.684 17.3554 114.683 17.6284 115.009 18.0788C116.988 20.8188 118.93 23.5896 120.883 26.35C120.974 26.4797 121.059 26.6094 121.224 26.8534Z" fill="white"/>
<path d="M49.5891 17.7444C49.5891 15.9274 49.5716 14.1104 49.6003 12.2951C49.6083 11.7832 49.498 11.6075 48.9893 11.6246C47.7928 11.6672 46.5931 11.6194 45.395 11.645C44.9519 11.6553 44.7648 11.5222 44.8016 11.024C44.8656 10.1812 44.4865 9.11315 44.9391 8.54843C45.3758 8.00418 46.3932 8.41706 47.153 8.37611C47.7912 8.34199 48.4326 8.33858 49.0693 8.37441C49.5124 8.4 49.6003 8.20891 49.5955 7.78068C49.5764 6.16328 49.6083 4.54417 49.5763 2.92678C49.5667 2.41153 49.6867 2.22897 50.1906 2.25457C51.0144 2.29893 51.843 2.2921 52.6668 2.25627C53.1162 2.23751 53.2602 2.38082 53.2506 2.87218C53.2234 4.46057 53.2682 6.05238 53.2266 7.64077C53.2106 8.25839 53.4042 8.39829 53.9448 8.38123C55.2229 8.34199 56.5026 8.39488 57.779 8.35564C58.2877 8.33858 58.4173 8.51601 58.3869 9.02785C58.3469 9.70688 58.3533 10.391 58.3853 11.0701C58.4061 11.5239 58.2509 11.6501 57.8382 11.6433C56.5074 11.6194 55.1749 11.6484 53.8441 11.6263C53.4378 11.6194 53.225 11.6638 53.2298 12.1995C53.2522 15.6339 53.2442 19.0683 53.2394 22.5028C53.2378 23.2483 53.5865 23.5981 54.2663 23.6015C55.2789 23.6049 56.2914 23.6203 57.3024 23.5947C57.7151 23.5844 57.8702 23.7124 57.8478 24.1679C57.8158 24.876 57.8142 25.5874 57.8478 26.2955C57.8702 26.7612 57.6991 26.8653 57.296 26.8585C55.9107 26.8363 54.5255 26.8533 53.1418 26.8482C50.92 26.8414 49.6259 25.4936 49.5923 23.1067C49.57 21.3221 49.5891 19.5324 49.5891 17.7444Z" fill="white"/>
<path d="M83.0142 13.8203C83.0142 17.9082 82.9982 21.9977 83.0302 26.0856C83.035 26.7322 82.8782 26.9165 82.2848 26.867C81.5697 26.8073 80.8435 26.809 80.1285 26.867C79.5367 26.9148 79.3719 26.7339 79.3783 26.0839C79.4135 22.7621 79.3943 19.4403 79.3943 16.1185C79.3943 11.2066 79.4071 6.29465 79.3783 1.38274C79.3751 0.731005 79.5383 0.556981 80.1285 0.60134C80.8707 0.657642 81.6209 0.649111 82.3647 0.603046C82.8846 0.57063 83.027 0.739535 83.0238 1.29914C83.0046 5.4723 83.0142 9.64546 83.0142 13.8203Z" fill="white"/>
<path d="M156.016 6.86961C157.633 6.88326 158.921 8.23792 158.926 9.92527C158.931 11.5853 157.597 13.0065 156.024 13.0219C154.449 13.0355 153.094 11.6331 153.084 9.97474C153.075 8.21232 154.356 6.85596 156.016 6.86961Z" fill="white"/>
</svg>
