<?xml version="1.0" encoding="utf-8"?>
<!-- Generator: Adobe Illustrator 25.4.0, SVG Export Plug-In . SVG Version: 6.00 Build 0)  -->
<svg version="1.1" id="Layer_1" xmlns="http://www.w3.org/2000/svg" xmlns:xlink="http://www.w3.org/1999/xlink" x="0px" y="0px"
	 viewBox="0 0 1050.9 160.12" style="enable-background:new 0 0 1050.9 160.12;" xml:space="preserve">
<style type="text/css">
	.st0{fill:#FCFCFC;}
	.st1{fill:#AD6DFC;}
	.st2{fill:#211D1C;}
	.st3{fill:#211D1D;}
</style>
<path class="st1" d="M844.88,11.24c7.97,6.89,14.99,12.94,21.98,19.01c27.24,23.66,54.61,47.17,81.66,71.05
	c13.7,12.1,28.11,23.39,41.05,36.35c2.67,2.67,7.07,2.55,9.36-0.21c2.71-3.27,2.28-6.39-0.9-9.18
	c-12.01-10.51-23.99-21.06-36.03-31.54c-24.46-21.28-48.96-42.53-73.44-63.79c-11.66-10.12-23.33-20.22-35.24-30.55
	c1.76-1.19,3.43-0.7,4.97-0.7c52.3-0.03,104.59,0.04,156.89-0.14c4.72-0.02,5.81,1.39,5.71,5.84c-0.26,11.35-0.06,11.35-11.62,11.35
	c-35.8,0-71.61,0-107.43,0c-0.35,1.91,1.19,2.32,2.11,3.12c36.48,31.79,72.85,63.71,109.52,95.27c8.46,7.28,8.37,16.49,6.89,25.57
	c-1.38,8.41-7.79,14.29-16.04,16.12c-8.68,1.93-17.39,1.42-24.83-5.17c-21.53-19.08-43.27-37.93-64.93-56.87
	c-16.64-14.56-33.27-29.14-49.92-43.7c-0.34-0.3-0.82-0.43-1.35-0.7c-1.14,1.75-0.58,3.6-0.58,5.32
	c-0.04,32.12-0.13,64.24,0.08,96.35c0.03,4.48-1.21,5.58-5.57,5.48c-12.32-0.27-12.32-0.07-12.32-12.59c0-42.94,0-85.87,0-128.81
	C844.88,16.33,844.88,14.51,844.88,11.24z"/>
<path class="st2" d="M27.23,101.33c0-16.64,0.1-33.28-0.08-49.92c-0.04-3.5,0.89-4.58,4.39-4.36c4.81,0.31,9.66,0.2,14.48,0.02
	c2.57-0.1,3.66,0.64,3.4,3.32c-0.19,1.98-0.15,4,0.01,5.98c0.09,1.15-0.85,2.83,1.18,3.29c1.44,0.33,2.56-0.2,3.42-1.41
	C63.56,44.84,77.1,43.87,91.55,46.6c8.25,1.56,14.27,6.73,18.83,13.68c2.4,3.66,4.25,3.77,6.48,0.06
	c9.17-15.24,25.99-17.36,41.89-13.22c14.47,3.77,23.97,16.64,24.23,32.87c0.38,24.12,0.09,48.25,0.23,72.38
	c0.02,2.91-1.18,3.18-3.53,3.12c-5.16-0.13-10.33-0.25-15.48,0.03c-3.24,0.18-3.82-1.03-3.8-3.98c0.12-21.13,0.09-42.27,0.03-63.4
	c-0.01-3.15-0.05-6.37-0.72-9.42c-1.69-7.79-7.51-12.81-15.63-14c-10.06-1.48-19.28,2.4-23.84,10.04c-3,5.03-3.77,10.59-3.77,16.31
	c-0.03,19.97-0.13,39.94,0.09,59.9c0.04,3.83-1.03,4.82-4.69,4.56c-4.64-0.33-9.33-0.3-13.98,0c-3.36,0.22-4.09-0.96-4.07-4.15
	c0.14-21.3,0.09-42.6,0.07-63.9c-0.01-14.78-6.71-22.6-19.63-22.94c-13.96-0.37-23.74,8.21-24.05,22.25
	c-0.47,21.29-0.36,42.59-0.21,63.89c0.03,4.01-1.11,5.14-4.98,4.85c-4.47-0.33-9-0.31-13.48,0c-3.43,0.24-4.47-0.68-4.42-4.28
	C27.35,134.61,27.23,117.97,27.23,101.33z"/>
<path class="st2" d="M512.47,140.85c0.36-3.54-0.95-4.84-4.41-4.31c-1.14,0.17-2.33,0.04-3.49,0.02c-5.76-0.1-7.46-1.71-7.52-7.41
	c-0.08-7.98-0.02-15.97-0.02-23.95h-0.07c0-7.99,0.25-15.98-0.05-23.96c-0.62-16.26-10.04-29.08-25.3-34.12
	c-12.99-4.3-26.3-4.37-39.26-0.14c-12.65,4.13-21.59,12.65-26.55,25.21c-1.1,2.79-1.06,4.06,2.18,4.89
	c4.48,1.15,8.91,2.65,13.21,4.37c3.38,1.35,4.65,0.58,5.87-2.95c4.33-12.48,16.28-17.85,32.04-14.87
	c10.6,2.01,15.82,9.84,15.91,23.04c0.02,3.72-1.29,4.32-4.57,4.25c-9.82-0.19-19.64-0.11-29.47-0.04
	c-6.86,0.05-13.59,1.06-19.99,3.62c-10.77,4.31-18.21,11.64-19.89,23.48c-1.88,13.23,1.2,24.77,12.76,32.91
	c18.95,13.36,45.94,9.44,59.85-8.78c0.89-1.16,1.56-2.11,3.12-1.89c2.06,0.29,1.31,2.07,1.53,3.18c1.2,6.07,5.11,9.4,10.77,11.18
	c2.92,0.92,5.89,0.93,8.89,0.87c4.63-0.09,10.88,1.55,13.48-0.81C514.49,151.93,511.99,145.58,512.47,140.85z M450.92,139.38
	c-5.44,0.67-10.95,0.85-16.29-0.94c-7.57-2.53-11.78-8.27-11.46-15.58c0.3-6.88,4.51-11.42,12.45-13.49
	c6.73-1.76,13.58-0.47,19.14-0.91c6.54,0,11.87,0.12,17.18-0.05c2.49-0.08,2.97,0.86,3.01,3.16
	C475.21,125.76,465.11,137.66,450.92,139.38z"/>
<path class="st3" d="M227.01,107.42c12.31,0.29,24.63,0.1,36.95,0.1h30.46c12.16,0,12.17,0,11.45-12.46
	c-2.73-47.01-47.08-60.34-78.6-45.01c-11.09,5.4-18.78,14.16-23.23,25.59c-6.19,15.92-6.46,32.24-1.15,48.31
	c8.18,24.76,32.76,38.07,60.61,34.21c16.81-2.33,28.71-11.19,37.47-25.17c1.56-2.49,1.64-3.87-1.36-5.2
	c-4.23-1.88-8.34-4.08-12.37-6.38c-2.19-1.24-3.35-1.12-4.63,1.25c-7.27,13.51-19.08,17.57-33.61,15.74
	c-13.75-1.72-24.35-12.56-26.08-26.23C222.46,108.51,222.97,107.32,227.01,107.42z M223.21,87.29c1.89-13.35,14.35-23.09,29.93-23.2
	c15.66-0.12,26.93,8.61,29.2,22.28c0.54,3.23-0.15,4.01-3.34,3.94c-8.8-0.19-17.61-0.06-26.42-0.06s-17.62-0.05-26.42,0.03
	C223.94,90.3,222.83,89.99,223.21,87.29z"/>
<path class="st2" d="M591.21,107.4c12.3,0.35,24.62,0.12,36.94,0.12h29.46c12.7,0,12.7,0,12.22-12.73
	c-0.84-22.12-13.37-40.21-32.83-47.4c-20.93-7.74-45.23-2.38-59.7,13.37c-10.08,10.98-13.37,24.39-13.86,38.95
	c-1.05,31.61,15.97,53.41,45.92,58.26c23.6,3.83,43.56-5.18,55.5-24.82c1.67-2.74,1.57-4.14-1.49-5.51
	c-4.23-1.9-8.33-4.09-12.4-6.32c-1.93-1.06-2.97-1.25-4.23,1.08c-6.98,12.97-18.1,17.64-32.47,16.15
	c-14.15-1.46-25.55-12.18-27.35-26.09C586.46,108.95,586.82,107.28,591.21,107.4z M587.19,87.34c2.44-13.86,14.2-23.07,29.99-23.26
	c15.53-0.18,26.52,8.37,29.26,22.38c0.68,3.46-0.42,3.9-3.42,3.85c-8.82-0.16-17.65-0.06-26.47-0.06
	c-8.83,0.01-17.65-0.03-26.47,0.03C587.93,90.3,586.69,90.2,587.19,87.34z"/>
<path class="st2" d="M784.96,155.46c-8.85,0-16.93-0.07-25.01,0.05c-2.36,0.04-3.06-1.64-4.09-3.07
	c-8.2-11.28-16.37-22.6-24.6-33.87c-3.17-4.35-4.5-4.28-7.7,0.14c-8.19,11.29-16.45,22.53-24.53,33.9c-1.53,2.15-3.1,2.98-5.72,2.91
	c-7.46-0.18-14.93-0.06-23.4-0.06c5.91-7.85,11.33-15.07,16.77-22.28c7.31-9.68,14.52-19.43,22.04-28.94
	c2.23-2.81,1.86-4.5-0.19-7.16c-12.43-16.18-24.66-32.51-37.76-49.87c9.19,0,17.35-0.04,25.51,0.03c1.75,0.01,2.31,1.72,3.16,2.88
	c8.06,10.99,16.08,22,24.15,32.97c3.12,4.24,4.66,4.22,7.8-0.07c8.04-10.99,16.05-22,24.09-32.99c0.96-1.31,1.66-2.92,3.72-2.91
	c8.07,0.03,16.15,0.01,25.18,0.01c-10.32,13.61-20.01,26.39-29.71,39.17c-2.81,3.71-5.46,7.56-8.49,11.07
	c-2.1,2.42-2.11,4.02-0.07,6.66c12.37,16.06,24.51,32.3,36.72,48.48C783.4,153.27,783.93,154.03,784.96,155.46z"/>
<path class="st2" d="M337.13,102.07c0-10.65-0.11-21.3,0.07-31.94c0.05-3-0.64-4.03-3.82-3.93c-7.48,0.25-14.98-0.03-22.47,0.12
	c-2.77,0.06-3.94-0.72-3.71-3.64c0.4-4.94-1.97-11.2,0.86-14.51c2.73-3.19,9.09-0.77,13.84-1.01c3.99-0.2,8-0.22,11.98-0.01
	c2.77,0.15,3.32-0.97,3.29-3.48c-0.12-9.48,0.08-18.97-0.12-28.45c-0.06-3.02,0.69-4.09,3.84-3.94c5.15,0.26,10.33,0.22,15.48,0.01
	c2.81-0.11,3.71,0.73,3.65,3.61c-0.17,9.31,0.11,18.64-0.15,27.95c-0.1,3.62,1.11,4.44,4.49,4.34c7.99-0.23,15.99,0.08,23.97-0.15
	c3.18-0.1,3.99,0.94,3.8,3.94c-0.25,3.98-0.21,7.99-0.01,11.97c0.13,2.66-0.84,3.4-3.42,3.36c-8.32-0.14-16.65,0.03-24.97-0.1
	c-2.54-0.04-3.87,0.22-3.84,3.36c0.14,20.13,0.09,40.26,0.06,60.39c-0.01,4.37,2.17,6.42,6.42,6.44c6.33,0.02,12.66,0.11,18.98-0.04
	c2.58-0.06,3.55,0.69,3.41,3.36c-0.2,4.15-0.21,8.32,0,12.47c0.14,2.73-0.93,3.34-3.45,3.3c-8.66-0.13-17.32-0.03-25.97-0.06
	c-13.89-0.04-21.98-7.94-22.19-21.93C337.01,123.04,337.13,112.55,337.13,102.07z"/>
<path class="st2" d="M546.09,79.07c0,23.96-0.1,47.93,0.1,71.89c0.03,3.79-0.95,4.87-4.66,4.58c-4.47-0.35-9.01-0.34-13.48,0
	c-3.7,0.28-4.73-0.78-4.69-4.59c0.22-19.47,0.1-38.94,0.1-58.41c0-28.79,0.08-57.58-0.1-86.37c-0.02-3.82,1-4.84,4.69-4.58
	c4.64,0.33,9.33,0.28,13.98,0.01c3.25-0.19,4.14,0.8,4.12,4.08C546.03,30.14,546.09,54.6,546.09,79.07z"/>
<path class="st2" d="M1002.47,38.33c10.11,0.08,18.16,8.02,18.19,17.91c0.03,9.73-8.31,18.06-18.14,18.15
	c-9.85,0.08-18.32-8.14-18.38-17.86C984.08,46.2,992.09,38.25,1002.47,38.33z"/>
</svg>
