<svg width="72" height="72" viewBox="0 0 72 72" fill="none" xmlns="http://www.w3.org/2000/svg">
<path d="M67.9008 57.5514C68.4725 57.1062 68.9283 56.5294 69.2293 55.8702C69.5303 55.211 69.6677 54.4889 69.6297 53.7652C69.5917 53.0415 69.3795 52.3377 69.0111 51.7137C68.6427 51.0896 68.129 50.5638 67.5138 50.1809L67.4958 23.9835L62.9961 26.9983V50.1719C62.387 50.5539 61.8784 51.0764 61.5128 51.6954C61.1472 52.3145 60.9353 53.0121 60.8947 53.7299C60.8542 54.4477 60.9862 55.1648 61.2798 55.8211C61.5734 56.4773 62.02 57.0537 62.5821 57.5019L60.8812 59.7608C59.3685 61.6853 58.5305 64.0537 58.4963 66.5014V72H62.1636C63.0446 71.9999 63.9004 71.7061 64.5956 71.1649C65.2908 70.6238 65.7856 69.8662 66.0019 69.0122L67.4913 63.0006V72H71.991V66.5554C71.952 64.096 71.1079 61.7172 69.5882 59.7833L67.9008 57.5514ZM35.9978 0L0 17.9989L35.9978 40.4975L71.9955 17.9989L35.9978 0Z" fill="#6A1B9A"/>
<path d="M35.9978 44.9974L13.4992 30.0133V37.7078C13.4992 41.8026 26.7283 53.9968 35.9978 53.9968C45.2672 53.9968 58.4963 41.8026 58.4963 37.7078V30.0133L35.9978 44.9974Z" fill="#6A1B9A"/>
</svg>
