<svg width="73" height="73" viewBox="0 0 73 73" fill="none" xmlns="http://www.w3.org/2000/svg">
<path d="M19.0669 17.5666C19.6327 17.5666 20.1753 17.3418 20.5754 16.9418C20.9755 16.5417 21.2002 15.9991 21.2002 15.4333V2.63333C21.2002 2.06753 20.9755 1.52491 20.5754 1.12484C20.1753 0.72476 19.6327 0.5 19.0669 0.5C18.5011 0.5 17.9585 0.72476 17.5584 1.12484C17.1584 1.52491 16.9336 2.06753 16.9336 2.63333V15.4333C16.9336 15.9991 17.1584 16.5417 17.5584 16.9418C17.9585 17.3418 18.5011 17.5666 19.0669 17.5666Z" fill="#6A1B9A"/>
<path d="M53.1997 17.5666C53.7655 17.5666 54.3081 17.3418 54.7082 16.9418C55.1083 16.5417 55.3331 15.9991 55.3331 15.4333V2.63333C55.3331 2.06753 55.1083 1.52491 54.7082 1.12484C54.3081 0.72476 53.7655 0.5 53.1997 0.5C52.6339 0.5 52.0913 0.72476 51.6912 1.12484C51.2912 1.52491 51.0664 2.06753 51.0664 2.63333V15.4333C51.0664 15.9991 51.2912 16.5417 51.6912 16.9418C52.0913 17.3418 52.6339 17.5666 53.1997 17.5666Z" fill="#6A1B9A"/>
<path d="M40.1 73H36.5C34.52 73 32.8256 72.2956 31.4168 70.8868C30.008 69.478 29.3024 67.7824 29.3 65.8V51.4C29.3 45.4 31.4 40.3 35.6 36.1C39.8 31.9 44.9 29.8 50.9 29.8C56.9 29.8 62 31.9 66.2 36.1C70.4 40.3 72.5 45.4 72.5 51.4V65.8C72.5 67.78 71.7956 69.4756 70.3868 70.8868C68.978 72.298 67.2824 73.0024 65.3 73H61.7C60.68 73 59.8256 72.6544 59.1368 71.9632C58.448 71.272 58.1024 70.4176 58.1 69.4V58.6C58.1 57.58 58.4456 56.7256 59.1368 56.0368C59.828 55.348 60.6824 55.0024 61.7 55H67.1V51.4C67.1 46.9 65.5256 43.0756 62.3768 39.9268C59.228 36.778 55.4024 35.2024 50.9 35.2C46.3976 35.1976 42.5732 36.7732 39.4268 39.9268C36.2804 43.0804 34.7048 46.9048 34.7 51.4V55H40.1C41.12 55 41.9756 55.3456 42.6668 56.0368C43.358 56.728 43.7024 57.5824 43.7 58.6V69.4C43.7 70.42 43.3544 71.2756 42.6632 71.9668C41.972 72.658 41.1176 73.0024 40.1 73ZM23.9 24.4C25.4 24.4 26.6756 23.8756 27.7268 22.8268C28.778 21.778 29.3024 20.5024 29.3 19C29.2976 17.4976 28.7732 16.2232 27.7268 15.1768C26.6804 14.1304 25.4048 13.6048 23.9 13.6C22.3952 13.5952 21.1208 14.1208 20.0768 15.1768C19.0328 16.2328 18.5072 17.5072 18.5 19C18.4928 20.4928 19.0184 21.7684 20.0768 22.8268C21.1352 23.8852 22.4096 24.4096 23.9 24.4ZM22.1 65.8H7.7C5.72 65.8 4.0256 65.0956 2.6168 63.6868C1.208 62.278 0.5024 60.5824 0.5 58.6V8.2C0.5 6.22 1.2056 4.5256 2.6168 3.1168C4.028 1.708 5.7224 1.0024 7.7 1H40.1C42.08 1 43.7756 1.7056 45.1868 3.1168C46.598 4.528 47.3024 6.2224 47.3 8.2V22.78C43.88 23.2 40.7156 24.16 37.8068 25.66C34.898 27.16 32.3324 29.08 30.11 31.42C29.21 30.88 28.2356 30.4756 27.1868 30.2068C26.138 29.938 25.0424 29.8024 23.9 29.8C20.42 29.8 17.45 31.03 14.99 33.49C12.53 35.95 11.3 38.92 11.3 42.4C11.3 45.64 12.3356 48.4156 14.4068 50.7268C16.478 53.038 19.0424 54.4324 22.1 54.91V65.8ZM23.9 37C24.2 37 24.5 37.03 24.8 37.09C25.1 37.15 25.4 37.24 25.7 37.36C24.86 38.92 24.1556 40.54 23.5868 42.22C23.018 43.9 22.6124 45.67 22.37 47.53C21.23 47.23 20.3 46.6 19.58 45.64C18.86 44.68 18.5 43.6 18.5 42.4C18.5 40.9 19.0256 39.6256 20.0768 38.5768C21.128 37.528 22.4024 37.0024 23.9 37Z" fill="#6A1B9A"/>
</svg>
