<svg width="80" height="73" viewBox="0 0 80 73" fill="none" xmlns="http://www.w3.org/2000/svg">
<path d="M23.0669 17.5666C23.6327 17.5666 24.1753 17.3418 24.5754 16.9418C24.9755 16.5417 25.2002 15.9991 25.2002 15.4333V2.63333C25.2002 2.06753 24.9755 1.52491 24.5754 1.12484C24.1753 0.72476 23.6327 0.5 23.0669 0.5C22.5011 0.5 21.9585 0.72476 21.5584 1.12484C21.1584 1.52491 20.9336 2.06753 20.9336 2.63333V15.4333C20.9336 15.9991 21.1584 16.5417 21.5584 16.9418C21.9585 17.3418 22.5011 17.5666 23.0669 17.5666Z" fill="#6A1B9A"/>
<path d="M57.1997 17.5666C57.7655 17.5666 58.3081 17.3418 58.7082 16.9418C59.1083 16.5417 59.3331 15.9991 59.3331 15.4333V2.63333C59.3331 2.06753 59.1083 1.52491 58.7082 1.12484C58.3081 0.72476 57.7655 0.5 57.1997 0.5C56.6339 0.5 56.0913 0.72476 55.6912 1.12484C55.2912 1.52491 55.0664 2.06753 55.0664 2.63333V15.4333C55.0664 15.9991 55.2912 16.5417 55.6912 16.9418C56.0913 17.3418 56.6339 17.5666 57.1997 17.5666Z" fill="#6A1B9A"/>
<path d="M43.9478 4.72414V10.931H48.8388C50.3484 10.931 51.8331 11.3283 53.144 12.0781L59.5495 15.7327C59.7415 15.8419 59.9467 15.8966 60.1652 15.8966H71.2582C72.2459 15.8966 73.1931 16.2889 73.8915 16.9873C74.5899 17.6857 74.9823 18.633 74.9823 19.6207C74.9823 20.6084 74.5899 21.5556 73.8915 22.2541C73.1931 22.9525 72.2459 23.3448 71.2582 23.3448H69.1379L79.6201 46.643C79.9298 47.3323 80.0226 48.0995 79.886 48.8427C79.7494 49.5859 79.39 50.27 78.8554 50.8041L76.2237 48.1724L78.8504 50.8091L78.8455 50.819L78.8355 50.829L78.8057 50.8588L78.776 50.8836L78.7263 50.9332L78.5028 51.1319C77.4535 52.0091 76.318 52.7539 75.0965 53.3663C72.7776 54.5283 69.4209 55.6207 65.0513 55.6207C61.573 55.6614 58.1333 54.8894 55.006 53.3663C53.7869 52.7576 52.6436 52.0076 51.5997 51.1319L51.3762 50.9332L51.2968 50.8588L51.267 50.829L51.2471 50.8091V50.8041C50.7125 50.27 50.3531 49.5859 50.2165 48.8427C50.0799 48.0995 50.1727 47.3323 50.4824 46.643L60.9696 23.3448H60.1652C58.6507 23.3448 57.166 22.9526 55.8551 22.1978L49.4496 18.5432C49.2621 18.4359 49.0499 18.3794 48.8339 18.3793H43.9478V65.5517H56.3616C57.3493 65.5517 58.2966 65.9441 58.995 66.6425C59.6934 67.3409 60.0857 68.2882 60.0857 69.2759C60.0857 70.2636 59.6934 71.2108 58.995 71.9092C58.2966 72.6076 57.3493 73 56.3616 73H24.0857C23.098 73 22.1508 72.6076 21.4524 71.9092C20.754 71.2108 20.3616 70.2636 20.3616 69.2759C20.3616 68.2882 20.754 67.3409 21.4524 66.6425C22.1508 65.9441 23.098 65.5517 24.0857 65.5517H36.4995V18.3793H31.6135C31.3975 18.3794 31.1852 18.4359 30.9977 18.5432L24.5972 22.2028C23.2813 22.9476 21.7966 23.3448 20.2822 23.3448H19.4777L29.9649 46.643C30.2747 47.3323 30.3674 48.0995 30.2308 48.8427C30.0943 49.5859 29.7348 50.27 29.2002 50.8041L26.5685 48.1724L29.1953 50.8091L29.1903 50.819L29.1804 50.829L29.1506 50.8588L29.0711 50.9332L28.8477 51.1319C27.7983 52.0091 26.6628 52.7539 25.4413 53.3663C23.1224 54.5283 19.7657 55.6207 15.3961 55.6207C11.9178 55.6614 8.47815 54.8894 5.35085 53.3663C4.13173 52.7576 2.98843 52.0076 1.9445 51.1319L1.72105 50.9332L1.64161 50.8588L1.61181 50.829L1.59195 50.8091V50.8041C1.05737 50.27 0.697922 49.5859 0.561339 48.8427C0.424755 48.0995 0.517502 47.3323 0.82726 46.643L11.3144 23.3448H9.18919C8.20149 23.3448 7.25424 22.9525 6.55583 22.2541C5.85742 21.5556 5.46505 20.6084 5.46505 19.6207C5.46505 18.633 5.85742 17.6857 6.55583 16.9873C7.25424 16.2889 8.20149 15.8966 9.18919 15.8966H20.2822C20.4998 15.8973 20.7139 15.8408 20.9028 15.7327L27.2984 12.0731C28.6143 11.3283 30.099 10.931 31.6135 10.931H36.4995V4.72414C36.4995 3.73643 36.8919 2.78919 37.5903 2.09077C38.2887 1.39236 39.236 1 40.2237 1C41.2114 1 42.1586 1.39236 42.857 2.09077C43.5555 2.78919 43.9478 3.73643 43.9478 4.72414ZM58.5713 46.8168C59.9864 47.4872 62.1365 48.1724 65.0513 48.1724C67.966 48.1724 70.1161 47.4872 71.5313 46.8168L65.0513 32.4168L58.5713 46.8168ZM8.91609 46.8168C10.3313 47.4872 12.4813 48.1724 15.3961 48.1724C18.3108 48.1724 20.4609 47.4872 21.8761 46.8168L15.3961 32.4168L8.91609 46.8168Z" fill="#6A1B9A"/>
</svg>
