<svg width="69" height="72" viewBox="0 0 69 72" fill="none" xmlns="http://www.w3.org/2000/svg">
<path d="M34.5943 61.7143H6.85714V13.7143H0V61.7143C0 63.5329 0.722447 65.2771 2.00841 66.563C3.29437 67.849 5.03852 68.5714 6.85714 68.5714H37.0629C35.8019 66.468 34.9634 64.1388 34.5943 61.7143ZM54.8571 0H37.7143V17.1429L30.8571 12L24 17.1429V0H20.5714C18.7528 0 17.0087 0.722447 15.7227 2.00841C14.4367 3.29437 13.7143 5.03852 13.7143 6.85714V48C13.7143 49.8186 14.4367 51.5628 15.7227 52.8487C17.0087 54.1347 18.7528 54.8571 20.5714 54.8571H34.5943C35.0936 51.9004 36.2332 49.0886 37.9334 46.6187C39.6335 44.1487 41.8531 42.0802 44.4367 40.5582C47.0202 39.0361 49.9053 38.0973 52.8898 37.8074C55.8743 37.5175 58.8861 37.8836 61.7143 38.88V6.85714C61.7143 5.03852 60.9918 3.29437 59.7059 2.00841C58.4199 0.722447 56.6758 0 54.8571 0ZM58.2857 44.5714V54.8571H68.5714V61.7143H58.2857V72H51.4286V61.7143H41.1429V54.8571H51.4286V44.5714H58.2857Z" fill="#6A1B9A"/>
</svg>
