<svg width="72" height="72" viewBox="0 0 72 72" fill="none" xmlns="http://www.w3.org/2000/svg">
<path fill-rule="evenodd" clip-rule="evenodd" d="M38.568 47.9834C41.5515 46.2582 44.1579 43.951 46.2323 41.1987C45.5637 40.1589 45.088 39.0072 44.828 37.7986L44.7303 37.346C44.4501 36.0536 43.7901 34.8745 42.8351 33.9598C41.8801 33.0451 40.6736 32.4366 39.3704 32.2124C28.7124 30.3606 28.7124 15.0629 39.3704 13.2059C40.6292 12.9893 41.7986 12.4139 42.7384 11.5489C43.6782 10.6839 44.3484 9.5661 44.6685 8.32959C42.1623 5.59855 39.0954 3.44152 35.6778 2.00626C32.2602 0.570999 28.5728 -0.108576 24.8681 0.0140875C21.1634 0.136751 17.529 1.05876 14.2138 2.71694C10.8987 4.37512 7.98113 6.73031 5.66103 9.62114C3.34093 12.512 1.67312 15.8702 0.771845 19.4656C-0.129432 23.0611 -0.242877 26.8089 0.439282 30.4524C1.12144 34.0958 2.58308 37.5487 4.72408 40.5746C6.86508 43.6004 9.63484 46.1278 12.8436 47.9834V53.9966C12.8436 55.3608 13.3856 56.6692 14.3502 57.6338C15.3149 58.5985 16.6232 59.1404 17.9875 59.1404H33.419C34.7832 59.1404 36.0916 58.5985 37.0562 57.6338C38.0209 56.6692 38.5628 55.3608 38.5628 53.9966L38.568 47.9834ZM12.8488 68.1421C12.8488 67.1189 13.2552 66.1377 13.9787 65.4142C14.7022 64.6907 15.6835 64.2842 16.7066 64.2842H34.7101C35.7332 64.2842 36.7145 64.6907 37.438 65.4142C38.1615 66.1377 38.568 67.1189 38.568 68.1421C38.568 69.1653 38.1615 70.1466 37.438 70.87C36.7145 71.5935 35.7332 72 34.7101 72H16.7066C15.6835 72 14.7022 71.5935 13.9787 70.87C13.2552 70.1466 12.8488 69.1653 12.8488 68.1421ZM50.2959 8.81826C51.2372 4.51801 57.3584 4.49229 58.3357 8.78225L58.382 8.988L58.4746 9.38922C59.0298 11.7389 60.2618 13.8741 62.0181 15.5308C63.7744 17.1874 65.9779 18.2927 68.3559 18.7099C72.8413 19.4917 72.8413 25.9318 68.3559 26.7137C65.9641 27.1327 63.749 28.2478 61.9878 29.9193C60.2265 31.5909 58.9973 33.7448 58.454 36.1115L58.3357 36.6361C57.3584 40.9312 51.2321 40.9055 50.2856 36.6001L50.1879 36.1526C49.6693 33.7769 48.455 31.6094 46.6997 29.9265C44.9444 28.2436 42.7278 27.1215 40.3323 26.7034C35.852 25.9267 35.852 19.4969 40.3323 18.715C42.7194 18.2999 44.9296 17.1858 46.6831 15.5138C48.4366 13.8417 49.6546 11.687 50.1827 9.32235L50.2599 8.988L50.2959 8.81826Z" fill="#6A1B9A"/>
</svg>
