<svg width="106" height="18" viewBox="0 0 106 18" fill="none" xmlns="http://www.w3.org/2000/svg">
<path d="M14.836 13.2908C13.6058 13.5862 12.3215 13.5719 11.0981 13.2492C9.87479 12.9264 8.75057 12.3053 7.82617 11.4415C6.90176 10.5776 6.20602 9.49799 5.80126 8.29927C5.39649 7.10055 5.29533 5.82016 5.50683 4.57275C5.47515 4.60434 5.44115 4.63353 5.40512 4.66006C5.1531 4.85178 4.83808 4.92288 4.20803 5.06509L3.63649 5.1947C1.42232 5.69604 0.315235 5.94626 0.0515154 6.79322C-0.211305 7.63929 0.542953 8.52225 2.05237 10.2873L2.443 10.7436C2.87143 11.245 3.08655 11.4961 3.18285 11.8057C3.27916 12.1162 3.24676 12.4511 3.18195 13.1198L3.12255 13.7292C2.89483 16.0846 2.78052 17.2619 3.46998 17.7849C4.15943 18.3078 5.19631 17.8317 7.26826 16.8767L7.80561 16.6301C8.39425 16.3583 8.68857 16.2232 9.0009 16.2232C9.31322 16.2232 9.60754 16.3583 10.1971 16.6301L10.7326 16.8767C12.8055 17.8308 13.8424 18.3078 14.5309 17.7858C15.2213 17.2619 15.107 16.0846 14.8792 13.7292L14.836 13.2908Z" fill="#F7941D"/>
<path d="M6.4377 3.06695L6.14248 3.59619C5.81846 4.17763 5.65645 4.46835 5.40443 4.66007C5.44043 4.63306 5.47433 4.60396 5.50613 4.57276C5.29458 5.82026 5.39573 7.10076 5.80054 8.29957C6.20535 9.49838 6.90118 10.5781 7.8257 11.4419C8.75022 12.3058 9.87457 12.9269 11.0981 13.2496C12.3215 13.5722 13.6059 13.5864 14.8362 13.2908L14.8182 13.1198C14.7543 12.4511 14.7219 12.1162 14.8182 11.8057C14.9145 11.4961 15.1288 11.245 15.5581 10.7436L15.9487 10.2873C17.4581 8.52316 18.2124 7.64019 17.9487 6.79323C17.6859 5.94626 16.5788 5.69514 14.3646 5.19471L13.7922 5.0651C13.163 4.92289 12.848 4.85178 12.5951 4.66007C12.3431 4.46835 12.181 4.17763 11.857 3.59619L11.5627 3.06695C10.4223 1.02199 9.85256 -0.000488281 9.0002 -0.000488281C8.14783 -0.000488281 7.57809 1.02199 6.4377 3.06695Z" fill="#FFBB69"/>
<path d="M36.836 13.2908C35.6058 13.5862 34.3215 13.5719 33.0981 13.2492C31.8748 12.9264 30.7506 12.3053 29.8262 11.4415C28.9018 10.5776 28.206 9.49799 27.8013 8.29927C27.3965 7.10055 27.2953 5.82016 27.5068 4.57275C27.4751 4.60434 27.4411 4.63353 27.4051 4.66006C27.1531 4.85178 26.8381 4.92288 26.208 5.06509L25.6365 5.1947C23.4223 5.69604 22.3152 5.94626 22.0515 6.79322C21.7887 7.63929 22.543 8.52225 24.0524 10.2873L24.443 10.7436C24.8714 11.245 25.0865 11.4961 25.1829 11.8057C25.2792 12.1162 25.2468 12.4511 25.182 13.1198L25.1225 13.7292C24.8948 16.0846 24.7805 17.2619 25.47 17.7849C26.1594 18.3078 27.1963 17.8317 29.2683 16.8767L29.8056 16.6301C30.3942 16.3583 30.6886 16.2232 31.0009 16.2232C31.3132 16.2232 31.6075 16.3583 32.1971 16.6301L32.7326 16.8767C34.8055 17.8308 35.8424 18.3078 36.5309 17.7858C37.2213 17.2619 37.107 16.0846 36.8792 13.7292L36.836 13.2908Z" fill="#F7941D"/>
<path d="M28.4377 3.06695L28.1425 3.59619C27.8185 4.17763 27.6564 4.46835 27.4044 4.66007C27.4404 4.63306 27.4743 4.60396 27.5061 4.57276C27.2946 5.82026 27.3957 7.10076 27.8005 8.29957C28.2054 9.49838 28.9012 10.5781 29.8257 11.4419C30.7502 12.3058 31.8746 12.9269 33.0981 13.2496C34.3215 13.5722 35.6059 13.5864 36.8362 13.2908L36.8182 13.1198C36.7543 12.4511 36.7219 12.1162 36.8182 11.8057C36.9145 11.4961 37.1288 11.245 37.5581 10.7436L37.9487 10.2873C39.4581 8.52316 40.2124 7.64019 39.9487 6.79323C39.6859 5.94626 38.5788 5.69514 36.3646 5.19471L35.7922 5.0651C35.163 4.92289 34.848 4.85178 34.5951 4.66007C34.3431 4.46835 34.181 4.17763 33.857 3.59619L33.5627 3.06695C32.4223 1.02199 31.8526 -0.000488281 31.0002 -0.000488281C30.1478 -0.000488281 29.5781 1.02199 28.4377 3.06695Z" fill="#FFBB69"/>
<path d="M58.836 13.2908C57.6058 13.5862 56.3215 13.5719 55.0981 13.2492C53.8748 12.9264 52.7506 12.3053 51.8262 11.4415C50.9018 10.5776 50.206 9.49799 49.8013 8.29927C49.3965 7.10055 49.2953 5.82016 49.5068 4.57275C49.4751 4.60434 49.4411 4.63353 49.4051 4.66006C49.1531 4.85178 48.8381 4.92288 48.208 5.06509L47.6365 5.1947C45.4223 5.69604 44.3152 5.94626 44.0515 6.79322C43.7887 7.63929 44.543 8.52225 46.0524 10.2873L46.443 10.7436C46.8714 11.245 47.0865 11.4961 47.1829 11.8057C47.2792 12.1162 47.2468 12.4511 47.182 13.1198L47.1225 13.7292C46.8948 16.0846 46.7805 17.2619 47.47 17.7849C48.1594 18.3078 49.1963 17.8317 51.2683 16.8767L51.8056 16.6301C52.3942 16.3583 52.6886 16.2232 53.0009 16.2232C53.3132 16.2232 53.6075 16.3583 54.1971 16.6301L54.7326 16.8767C56.8055 17.8308 57.8424 18.3078 58.5309 17.7858C59.2213 17.2619 59.107 16.0846 58.8792 13.7292L58.836 13.2908Z" fill="#F7941D"/>
<path d="M50.4377 3.06695L50.1425 3.59619C49.8185 4.17763 49.6564 4.46835 49.4044 4.66007C49.4404 4.63306 49.4743 4.60396 49.5061 4.57276C49.2946 5.82026 49.3957 7.10076 49.8005 8.29957C50.2054 9.49838 50.9012 10.5781 51.8257 11.4419C52.7502 12.3058 53.8746 12.9269 55.0981 13.2496C56.3215 13.5722 57.6059 13.5864 58.8362 13.2908L58.8182 13.1198C58.7543 12.4511 58.7219 12.1162 58.8182 11.8057C58.9145 11.4961 59.1288 11.245 59.5581 10.7436L59.9487 10.2873C61.4581 8.52316 62.2124 7.64019 61.9487 6.79323C61.6859 5.94626 60.5788 5.69514 58.3646 5.19471L57.7922 5.0651C57.163 4.92289 56.848 4.85178 56.5951 4.66007C56.3431 4.46835 56.181 4.17763 55.857 3.59619L55.5627 3.06695C54.4223 1.02199 53.8526 -0.000488281 53.0002 -0.000488281C52.1478 -0.000488281 51.5781 1.02199 50.4377 3.06695Z" fill="#FFBB69"/>
<path d="M80.836 13.2908C79.6058 13.5862 78.3215 13.5719 77.0981 13.2492C75.8748 12.9264 74.7506 12.3053 73.8262 11.4415C72.9018 10.5776 72.206 9.49799 71.8013 8.29927C71.3965 7.10055 71.2953 5.82016 71.5068 4.57275C71.4751 4.60434 71.4411 4.63353 71.4051 4.66006C71.1531 4.85178 70.8381 4.92288 70.208 5.06509L69.6365 5.1947C67.4223 5.69604 66.3152 5.94626 66.0515 6.79322C65.7887 7.63929 66.543 8.52225 68.0524 10.2873L68.443 10.7436C68.8714 11.245 69.0865 11.4961 69.1829 11.8057C69.2792 12.1162 69.2468 12.4511 69.182 13.1198L69.1225 13.7292C68.8948 16.0846 68.7805 17.2619 69.47 17.7849C70.1594 18.3078 71.1963 17.8317 73.2683 16.8767L73.8056 16.6301C74.3942 16.3583 74.6886 16.2232 75.0009 16.2232C75.3132 16.2232 75.6075 16.3583 76.1971 16.6301L76.7326 16.8767C78.8055 17.8308 79.8424 18.3078 80.5309 17.7858C81.2213 17.2619 81.107 16.0846 80.8792 13.7292L80.836 13.2908Z" fill="#F7941D"/>
<path d="M72.4377 3.06695L72.1425 3.59619C71.8185 4.17763 71.6564 4.46835 71.4044 4.66007C71.4404 4.63306 71.4743 4.60396 71.5061 4.57276C71.2946 5.82026 71.3957 7.10076 71.8005 8.29957C72.2054 9.49838 72.9012 10.5781 73.8257 11.4419C74.7502 12.3058 75.8746 12.9269 77.0981 13.2496C78.3215 13.5722 79.6059 13.5864 80.8362 13.2908L80.8182 13.1198C80.7543 12.4511 80.7219 12.1162 80.8182 11.8057C80.9145 11.4961 81.1288 11.245 81.5581 10.7436L81.9487 10.2873C83.4581 8.52316 84.2124 7.64019 83.9487 6.79323C83.6859 5.94626 82.5788 5.69514 80.3646 5.19471L79.7922 5.0651C79.163 4.92289 78.848 4.85178 78.5951 4.66007C78.3431 4.46835 78.181 4.17763 77.857 3.59619L77.5627 3.06695C76.4223 1.02199 75.8526 -0.000488281 75.0002 -0.000488281C74.1478 -0.000488281 73.5781 1.02199 72.4377 3.06695Z" fill="#FFBB69"/>
<path d="M102.836 13.2908C101.606 13.5862 100.321 13.5719 99.0981 13.2492C97.8748 12.9264 96.7506 12.3053 95.8262 11.4415C94.9018 10.5776 94.206 9.49799 93.8013 8.29927C93.3965 7.10055 93.2953 5.82016 93.5068 4.57275C93.4751 4.60434 93.4411 4.63353 93.4051 4.66006C93.1531 4.85178 92.8381 4.92288 92.208 5.06509L91.6365 5.1947C89.4223 5.69604 88.3152 5.94626 88.0515 6.79322C87.7887 7.63929 88.543 8.52225 90.0524 10.2873L90.443 10.7436C90.8714 11.245 91.0865 11.4961 91.1829 11.8057C91.2792 12.1162 91.2468 12.4511 91.182 13.1198L91.1225 13.7292C90.8948 16.0846 90.7805 17.2619 91.47 17.7849C92.1594 18.3078 93.1963 17.8317 95.2683 16.8767L95.8056 16.6301C96.3942 16.3583 96.6886 16.2232 97.0009 16.2232C97.3132 16.2232 97.6075 16.3583 98.1971 16.6301L98.7326 16.8767C100.805 17.8308 101.842 18.3078 102.531 17.7858C103.221 17.2619 103.107 16.0846 102.879 13.7292L102.836 13.2908Z" fill="#F7941D"/>
<path d="M94.4377 3.06695L94.1425 3.59619C93.8185 4.17763 93.6564 4.46835 93.4044 4.66007C93.4404 4.63306 93.4743 4.60396 93.5061 4.57276C93.2946 5.82026 93.3957 7.10076 93.8005 8.29957C94.2054 9.49838 94.9012 10.5781 95.8257 11.4419C96.7502 12.3058 97.8746 12.9269 99.0981 13.2496C100.322 13.5722 101.606 13.5864 102.836 13.2908L102.818 13.1198C102.754 12.4511 102.722 12.1162 102.818 11.8057C102.915 11.4961 103.129 11.245 103.558 10.7436L103.949 10.2873C105.458 8.52316 106.212 7.64019 105.949 6.79323C105.686 5.94626 104.579 5.69514 102.365 5.19471L101.792 5.0651C101.163 4.92289 100.848 4.85178 100.595 4.66007C100.343 4.46835 100.181 4.17763 99.857 3.59619L99.5627 3.06695C98.4223 1.02199 97.8526 -0.000488281 97.0002 -0.000488281C96.1478 -0.000488281 95.5781 1.02199 94.4377 3.06695Z" fill="#FFBB69"/>
</svg>
