<svg width="18" height="18" viewBox="0 0 18 18" fill="none" xmlns="http://www.w3.org/2000/svg">
<path d="M14.836 13.2908C13.6058 13.5862 12.3215 13.5719 11.0981 13.2492C9.87479 12.9264 8.75057 12.3053 7.82617 11.4415C6.90176 10.5776 6.20602 9.49799 5.80126 8.29927C5.39649 7.10055 5.29533 5.82016 5.50683 4.57275C5.47515 4.60434 5.44115 4.63353 5.40512 4.66006C5.1531 4.85178 4.83808 4.92288 4.20803 5.06509L3.63649 5.1947C1.42232 5.69604 0.315235 5.94626 0.0515154 6.79322C-0.211305 7.63929 0.542953 8.52225 2.05237 10.2873L2.443 10.7436C2.87143 11.245 3.08655 11.4961 3.18285 11.8057C3.27916 12.1162 3.24676 12.4511 3.18195 13.1198L3.12255 13.7292C2.89483 16.0846 2.78052 17.2619 3.46998 17.7849C4.15943 18.3078 5.19631 17.8317 7.26826 16.8767L7.80561 16.6301C8.39425 16.3583 8.68857 16.2232 9.0009 16.2232C9.31322 16.2232 9.60754 16.3583 10.1971 16.6301L10.7326 16.8767C12.8055 17.8308 13.8424 18.3078 14.5309 17.7858C15.2213 17.2619 15.107 16.0846 14.8792 13.7292L14.836 13.2908Z" fill="#F7941D"/>
<path d="M6.4377 3.06695L6.14248 3.59619C5.81846 4.17763 5.65645 4.46835 5.40443 4.66007C5.44043 4.63306 5.47433 4.60396 5.50613 4.57276C5.29458 5.82026 5.39573 7.10076 5.80054 8.29957C6.20535 9.49838 6.90118 10.5781 7.8257 11.4419C8.75022 12.3058 9.87457 12.9269 11.0981 13.2496C12.3215 13.5722 13.6059 13.5864 14.8362 13.2908L14.8182 13.1198C14.7543 12.4511 14.7219 12.1162 14.8182 11.8057C14.9145 11.4961 15.1288 11.245 15.5581 10.7436L15.9487 10.2873C17.4581 8.52316 18.2124 7.64019 17.9487 6.79323C17.6859 5.94626 16.5788 5.69514 14.3646 5.19471L13.7922 5.0651C13.163 4.92289 12.848 4.85178 12.5951 4.66007C12.3431 4.46835 12.181 4.17763 11.857 3.59619L11.5627 3.06695C10.4223 1.02199 9.85256 -0.000488281 9.0002 -0.000488281C8.14783 -0.000488281 7.57809 1.02199 6.4377 3.06695Z" fill="#FFBB69"/>
</svg>
